<svg xmlns="http://www.w3.org/2000/svg" viewBox="0 0 64 64" fill="none">
  <defs>
    <linearGradient id="shield" x1="12" y1="6" x2="52" y2="58" gradientUnits="userSpaceOnUse">
      <stop stop-color="#DDF7E7"/>
      <stop offset=".28" stop-color="#8AF2B6"/>
      <stop offset=".62" stop-color="#16693F"/>
      <stop offset="1" stop-color="#07130C"/>
    </linearGradient>
  </defs>
  <path d="M32 5 54 13v20c0 15-9 23-22 28C19 56 10 48 10 33V13L32 5Z" fill="#041009" stroke="rgba(233,255,242,.3)" stroke-width="1.4"/>
  <path d="M32 8.5 50 15v18c0 13-7.5 20.5-18 26-10.5-5.5-18-13-18-26V15l18-6.5Z" fill="url(#shield)"/>
  <path d="M22 21h23c-2.6 4.6-7.2 7.9-13 9.8 6.8 2.3 10.7 6.4 10.7 11.8 0 7.1-5.8 12.7-15.6 14-5.3.7-10.6-.8-15-4.6l4.7-5.5c3.4 2.6 7.2 3.8 10.8 3.3 4.8-.7 7.8-3.6 7.8-7.3 0-2.9-2.9-5-7.8-6.2l-4.5-1v-4.5l4.2-1c6-1.4 9.1-4 11-8.8H22Z" stroke="#F1FFF7" stroke-linecap="round" stroke-linejoin="round" stroke-width="2.8"/>
  <circle cx="38.5" cy="24" r="2" fill="#06110A"/>
</svg>
